<svg xmlns="http://www.w3.org/2000/svg" width="618.006" height="437.856" viewBox="0 0 618.006 437.856">
  <g id="Group_31667" data-name="Group 31667" transform="translate(-939.994 -130.15)">
    <g id="Polygon_3" data-name="Polygon 3" transform="translate(1515 142)" fill="#fff" opacity="0.128">
      <path d="M 42.13117599487305 36.5 L 0.8688239455223083 36.5 L 21.5 0.995185375213623 L 42.13117599487305 36.5 Z" stroke="none"/>
      <path d="M 21.5 1.990386962890625 L 1.737659454345703 36 L 41.2623405456543 36 L 21.5 1.990386962890625 M 21.5 0 L 43 37 L 0 37 L 21.5 0 Z" stroke="none" fill="#707070"/>
    </g>
    <g id="Rectangle_1917" data-name="Rectangle 1917" transform="translate(960.5 526.994) rotate(45)" fill="#fff" stroke="#707070" stroke-width="1" opacity="0.128">
      <rect width="29" height="29" stroke="none"/>
      <rect x="0.5" y="0.5" width="28" height="28" fill="none"/>
    </g>
    <g id="Polygon_9" data-name="Polygon 9" transform="translate(960 187)" fill="none" opacity="0.107">
      <path d="M21.5,0,43,38H0Z" stroke="none"/>
      <path d="M 21.5 8.12291145324707 L 6.859016418457031 34 L 36.14098358154297 34 L 21.5 8.12291145324707 M 21.5 0 L 43 38 L 0 38 L 21.5 0 Z" stroke="none" fill="#fff"/>
    </g>
    <g id="Group_25495" data-name="Group 25495" transform="translate(1024.157 68.166)">
      <g id="Group_25521" data-name="Group 25521" transform="translate(67.085 68.984)">
        <g id="Group_25508" data-name="Group 25508" transform="translate(-146.728 178.219)">
          <g id="Group_25507" data-name="Group 25507">
            <g id="Group_25505" data-name="Group 25505">
              <g id="Group_25502" data-name="Group 25502">
                <g id="Group_25501" data-name="Group 25501">
                  <g id="Group_25495-2" data-name="Group 25495" transform="translate(28.391 104.536)">
                    <rect id="Rectangle_2875" data-name="Rectangle 2875" width="45.224" height="92.016" transform="translate(0 0.067) rotate(-0.084)" fill="#09f"/>
                  </g>
                  <g id="Group_25496" data-name="Group 25496" transform="translate(166.775 147.536)">
                    <rect id="Rectangle_2876" data-name="Rectangle 2876" width="45.224" height="48.812" transform="translate(0 0.067) rotate(-0.084)" fill="#09f"/>
                  </g>
                  <g id="Group_25497" data-name="Group 25497" transform="translate(97.482 57.409)">
                    <rect id="Rectangle_2877" data-name="Rectangle 2877" width="45.224" height="139.041" transform="translate(0 0.067) rotate(-0.084)" fill="#09f"/>
                  </g>
                  <g id="Group_25500" data-name="Group 25500">
                    <g id="Group_25499" data-name="Group 25499">
                      <g id="Group_25498" data-name="Group 25498">
                        <path id="Path_24195" data-name="Path 24195" d="M302.993,395.5l-238.325.352-.3-201.48,9.831-.015.283,191.649,228.494-.337Z" transform="translate(-64.37 -194.358)" fill="#09f"/>
                      </g>
                    </g>
                  </g>
                </g>
              </g>
              <g id="Group_25503" data-name="Group 25503" transform="translate(30.657 79.545)">
                <text id="_60_" data-name="60%" transform="translate(0.025 17.054) rotate(-0.085)" fill="#fff" font-size="17" font-family="Lato-Black, Lato" font-weight="800"><tspan x="0" y="0">60%</tspan></text>
              </g>
              <g id="Group_25504" data-name="Group 25504" transform="translate(98.77 30.068)">
                <text id="_80_" data-name="80%" transform="translate(0.025 17.054) rotate(-0.085)" fill="#fff" font-size="17" font-family="Lato-Black, Lato" font-weight="800"><tspan x="0" y="0">80%</tspan></text>
              </g>
            </g>
            <g id="Group_25506" data-name="Group 25506" transform="translate(169.192 123.426)">
              <text id="_30_" data-name="30%" transform="translate(0.025 17.054) rotate(-0.085)" fill="#fff" font-size="17" font-family="Lato-Black, Lato" font-weight="800"><tspan x="0" y="0">30%</tspan></text>
            </g>
          </g>
        </g>
        <g id="Group_25512" data-name="Group 25512" transform="translate(141.521 -7)">
          <g id="Group_25511" data-name="Group 25511">
            <g id="Group_25509" data-name="Group 25509" transform="translate(0 39.437)">
              <path id="Path_24196" data-name="Path 24196" d="M216.737,139.457l-23.919-35.85L169.3,139.723l6.232-.035.374,159.733,35.317-.2L210.85,139.49Z" transform="translate(-169.301 -103.607)" fill="#16ccb3"/>
            </g>
            <g id="Group_25510" data-name="Group 25510" transform="translate(58.238)">
              <path id="Path_24197" data-name="Path 24197" d="M267.865,104.835l-23.919-35.85L220.429,105.1l6.232-.035.593,198.843,35.317-.2-.592-198.843Z" transform="translate(-220.429 -68.984)" fill="#16ccb3"/>
            </g>
          </g>
        </g>
        <g id="Group_25516" data-name="Group 25516" transform="translate(339.452 178.218)">
          <g id="Group_25515" data-name="Group 25515">
            <g id="Group_25513" data-name="Group 25513" transform="translate(0 30.017)">
              <path id="Path_24198" data-name="Path 24198" d="M409.819,287.65,385.9,251.8l-23.517,36.116,6.232-.035.374,152,35.317-.2-.374-152Z" transform="translate(-362.383 -251.799)" fill="rgba(22,204,179,0.4)"/>
            </g>
            <g id="Group_25514" data-name="Group 25514" transform="translate(58.238)">
              <path id="Path_24199" data-name="Path 24199" d="M460.948,261.3l-23.919-35.85-23.517,36.116,6.232-.035.592,181.694,35.317-.2-.592-181.693Z" transform="translate(-413.512 -225.446)" fill="rgba(22,204,179,0.4)"/>
            </g>
          </g>
        </g>
        <g id="Group_25520" data-name="Group 25520" transform="translate(-27.826 104.671)">
          <g id="Group_25519" data-name="Group 25519">
            <g id="Group_25517" data-name="Group 25517" transform="translate(38.795 23.616)">
              <path id="Path_24200" data-name="Path 24200" d="M349.992,124.915l11.715.068,4.506-6.335-42.644-.248-4.506,6.335,7.353.043a24.348,24.348,0,0,1,12.067,3.152,15.869,15.869,0,0,1,4.311,3.478l-19.3-.113-4.506,6.335,25.649.149c-.4,4.433-2.763,7.619-9,9.978-6.039,2.285-16.661,1.68-16.661,1.68l-.035,6.19,19.394,21.553a25.42,25.42,0,0,0,18.748,8.416l-27.452-29.85s22.585-1.976,24.4-17.913l7.607.044,4.506-6.335-12.465-.073A13.667,13.667,0,0,0,349.992,124.915Z" transform="translate(-318.941 -118.4)" fill="#225bab"/>
            </g>
            <g id="Group_25518" data-name="Group 25518">
              <path id="Path_24201" data-name="Path 24201" d="M323.869,101.6a49.426,49.426,0,0,0-30.282,45.233l-4.179-4.006-4.527,4.72,12.124,11.623,11.623-12.123-4.721-4.527-3.78,3.943a43.163,43.163,0,0,1,60.53-38.62l2.632-5.987A49.841,49.841,0,0,0,323.869,101.6Z" transform="translate(-284.882 -97.667)" fill="#225bab"/>
              <path id="Path_24202" data-name="Path 24202" d="M399.753,148.837l-12.124-11.623-11.623,12.123,4.72,4.527,3.781-3.943a43.162,43.162,0,0,1-60.529,38.62l-2.634,5.987c.456.2.911.393,1.37.579a49.7,49.7,0,0,0,68.333-45.554l4.178,4.006Z" transform="translate(-279.812 -92.168)" fill="#225bab"/>
            </g>
          </g>
        </g>
        <path id="Path_24423" data-name="Path 24423" d="M26.928-39.744a12.925,12.925,0,0,1-1.044,5.256A13.082,13.082,0,0,1,23.112-30.4,12.241,12.241,0,0,1,19.1-27.756a12.47,12.47,0,0,1-4.77.936,13.131,13.131,0,0,1-5.022-.936A11.653,11.653,0,0,1,5.346-30.4a12.107,12.107,0,0,1-2.61-4.086A14.224,14.224,0,0,1,1.8-39.744a14.967,14.967,0,0,1,.936-5.418,12.191,12.191,0,0,1,2.61-4.158A11.745,11.745,0,0,1,9.306-52a12.913,12.913,0,0,1,5.022-.954A13.182,13.182,0,0,1,19.386-52a11.661,11.661,0,0,1,4,2.682,12.191,12.191,0,0,1,2.61,4.158A14.967,14.967,0,0,1,26.928-39.744Zm-8.568,0a12.643,12.643,0,0,0-.306-3.042,5.415,5.415,0,0,0-.846-1.926A2.923,2.923,0,0,0,15.93-45.72a4.369,4.369,0,0,0-1.6-.288,4.228,4.228,0,0,0-1.584.288,2.726,2.726,0,0,0-1.224,1.008,5.643,5.643,0,0,0-.792,1.926,13.4,13.4,0,0,0-.288,3.042,12.116,12.116,0,0,0,.288,2.88,5.22,5.22,0,0,0,.792,1.836,2.8,2.8,0,0,0,1.224.972,4.228,4.228,0,0,0,1.584.288,4.369,4.369,0,0,0,1.6-.288,3.015,3.015,0,0,0,1.278-.972,5.022,5.022,0,0,0,.846-1.836A11.432,11.432,0,0,0,18.36-39.744ZM43.416-50.8a6.618,6.618,0,0,1,1.332-1.134,3.962,3.962,0,0,1,2.2-.522H55.08L15.552-1.584A4.448,4.448,0,0,1,14.2-.45,3.985,3.985,0,0,1,12.24,0H3.888ZM57.1-12.312a13.053,13.053,0,0,1-1.044,5.274,13.028,13.028,0,0,1-2.772,4.1A12.241,12.241,0,0,1,49.266-.288,12.47,12.47,0,0,1,44.5.648a13.131,13.131,0,0,1-5.022-.936,11.653,11.653,0,0,1-3.96-2.646,12.069,12.069,0,0,1-2.61-4.1,14.366,14.366,0,0,1-.936-5.274A14.967,14.967,0,0,1,32.9-17.73a12.191,12.191,0,0,1,2.61-4.158,11.745,11.745,0,0,1,3.96-2.682,12.913,12.913,0,0,1,5.022-.954,13.182,13.182,0,0,1,5.058.954,11.661,11.661,0,0,1,4,2.682,12.191,12.191,0,0,1,2.61,4.158A14.967,14.967,0,0,1,57.1-12.312Zm-8.568,0a12.46,12.46,0,0,0-.306-3.006,5.415,5.415,0,0,0-.846-1.926A2.923,2.923,0,0,0,46.1-18.252a4.369,4.369,0,0,0-1.6-.288,4.228,4.228,0,0,0-1.584.288,2.726,2.726,0,0,0-1.224,1.008,5.643,5.643,0,0,0-.792,1.926,13.208,13.208,0,0,0-.288,3.006,12.117,12.117,0,0,0,.288,2.88A5.22,5.22,0,0,0,41.688-7.6a2.8,2.8,0,0,0,1.224.972,4.228,4.228,0,0,0,1.584.288,4.369,4.369,0,0,0,1.6-.288A3.015,3.015,0,0,0,47.376-7.6a5.022,5.022,0,0,0,.846-1.836A11.432,11.432,0,0,0,48.528-12.312Z" transform="translate(282.758 96.85)" fill="rgba(255,255,255,0.25)"/>
        <text id="_" data-name="%" transform="translate(378.937 110.849)" fill="#225bab" font-size="34" font-family="Lato-Black, Lato" font-weight="800"><tspan x="0" y="0">%</tspan></text>
        <text id="_2" data-name="%" transform="translate(313.514 253.35)" fill="#225bab" font-size="25" font-family="Lato-Black, Lato" font-weight="800"><tspan x="0" y="0">%</tspan></text>
      </g>
      <g id="Group_25525" data-name="Group 25525" transform="translate(113.236 190.704)">
        <g id="Group_25522" data-name="Group 25522">
          <path id="Path_24203" data-name="Path 24203" d="M387.81,192.942l-1.4-5.645-8.488-11.452,1.4,5.645Z" transform="translate(-66.921 -175.845)" fill="#d33535"/>
          <path id="Path_24204" data-name="Path 24204" d="M472.049,176.892l-13.512,56.372-8.923-12.045L359.19,280.273l-31.425-43.358-198,129.247-24.873-34.306,1.4,5.645,24.873,34.306,198-129.247,31.425,43.358,90.423-59.054,8.923,12.045,13.512-56.371Z" transform="translate(-104.887 -175.7)" fill="#d33535"/>
        </g>
        <g id="Group_25523" data-name="Group 25523">
          <path id="Path_24205" data-name="Path 24205" d="M415.886,175.845l56.163,1.193L458.536,233.41l-8.923-12.045L359.19,280.418l-31.425-43.358-198,129.247L104.887,332l233.58-152.469,31.447,43.379L424.374,187.3Z" transform="translate(-104.887 -175.845)" fill="#ff5959"/>
        </g>
      </g>
      <path id="Path_24210" data-name="Path 24210" d="M407.632,408.877a6.729,6.729,0,0,0,1.953-4.432c0-14.959-65.26-27.085-145.761-27.085s-145.762,12.126-145.762,27.085a7.175,7.175,0,0,0,2.485,5c-43.727,1.776-27.4,22.09,30.524,22.09,38.242,0,70.348,3.926,88.672-.37,7.834.243,15.876.37,24.081.37,15.939,0,31.276-.477,45.633-1.355,17.2,4.836,52.77,8.158,93.868,8.158,57.922,0,104.877-6.6,104.877-14.735C508.2,415.663,463.556,409.194,407.632,408.877Z" transform="translate(0 42.88)" fill="#112c54" opacity="0.303"/>
      <g id="Group_25533" data-name="Group 25533" transform="translate(157.516 166.319)">
        <g id="Group_25532" data-name="Group 25532">
          <path id="Path_24211" data-name="Path 24211" d="M211.283,240.328l-26.072-57.164c-5.732-14.258,5.62-16.985,13.392-15.294,15.1,3.288,37.253,4.655,59.58-6.277,26.564-13.008,47.8-5.527,58.948.846a11.814,11.814,0,0,1,5.017,14.714l-26.972,66.275S219.174,245.1,211.283,240.328Z" transform="translate(-137.809 -154.436)" fill="#99a4ef"/>
          <g id="Group_25529" data-name="Group 25529" transform="translate(118.867 20.451)">
            <g id="Group_25528" data-name="Group 25528">
              <g id="Group_25526" data-name="Group 25526" transform="translate(16.452)">
                <path id="Path_24212" data-name="Path 24212" d="M270.128,250.434a7.568,7.568,0,0,1-7.372-9.258c.326-1.412,8.16-34.92,24.487-64.845a7.558,7.558,0,1,1,13.27,7.24c-15.305,28.055-22.951,60.678-23.027,61A7.563,7.563,0,0,1,270.128,250.434Z" transform="translate(-262.561 -172.391)" fill="#6775d3"/>
              </g>
              <g id="Group_25527" data-name="Group 25527" transform="translate(0 27.29)">
                <path id="Path_24213" data-name="Path 24213" d="M252.442,246.311a4.323,4.323,0,0,1-4.265-5.035c.154-.917,3.869-22.685,12.822-42.394a4.319,4.319,0,1,1,7.865,3.573c-8.472,18.652-12.132,40.038-12.168,40.252A4.321,4.321,0,0,1,252.442,246.311Z" transform="translate(-248.117 -196.349)" fill="#6775d3"/>
              </g>
            </g>
          </g>
          <path id="Path_24214" data-name="Path 24214" d="M375.592,361.883c0,60.718-51.9,75.286-115.916,75.286S143.761,422.6,143.761,361.883s51.9-130.256,115.916-130.256S375.592,301.165,375.592,361.883Z" transform="translate(-143.761 -143.703)" fill="#6775d3"/>
          <path id="Path_24215" data-name="Path 24215" d="M167.847,372.374c0-62.049,51.9-133.11,115.916-133.11a87.235,87.235,0,0,1,15.493,1.4,93.356,93.356,0,0,0-39.58-9.038c-64.018,0-115.916,69.538-115.916,130.256,0,37.469,19.767,57.358,49.946,67.1C177.541,417.18,167.847,399.18,167.847,372.374Z" transform="translate(-143.761 -143.703)" fill="#99a4ef"/>
          <g id="Group_25531" data-name="Group 25531" transform="translate(53.702 134.176)">
            <path id="Path_24216" data-name="Path 24216" d="M238.392,294.4h7.645l2.917-4.152H221.125l-2.917,4.152h4.8a15.9,15.9,0,0,1,7.887,2.011,10.351,10.351,0,0,1,2.826,2.253H221.125l-2.917,4.152h16.739c-.245,2.894-1.774,4.982-5.836,6.546-3.932,1.513-10.865,1.159-10.865,1.159v4.039l14.7,16.6h8.13L225.221,314.6s14.731-1.376,15.852-11.782h4.964l2.917-4.152h-8.134A8.92,8.92,0,0,0,238.392,294.4Z" transform="translate(-171.367 -245.68)" fill="#fff"/>
            <g id="Group_25530" data-name="Group 25530" transform="translate(21.258 21.258)">
              <path id="Path_24217" data-name="Path 24217" d="M231.863,354.147A40.957,40.957,0,1,1,272.82,313.19,41,41,0,0,1,231.863,354.147Zm0-77.237a36.28,36.28,0,1,0,36.28,36.281A36.321,36.321,0,0,0,231.863,276.91Z" transform="translate(-190.907 -272.233)" fill="#fff"/>
            </g>
          </g>
          <path id="Path_24218" data-name="Path 24218" d="M247.374,231.627a89.1,89.1,0,0,0-15.137,1.305c56.866,9.79,100.779,73.1,100.779,128.951S289.1,434.536,232.237,436.87q7.432.306,15.137.3c64.018,0,115.916-14.567,115.916-75.286S311.392,231.627,247.374,231.627Z" transform="translate(-131.458 -143.703)" fill="#5465d6"/>
          <path id="Path_24219" data-name="Path 24219" d="M298.923,236.656c-.8-3.386-3.237-6.723-5.575-6.723-10.708,2.739-24.451,4.781-41.969,4.781a187.738,187.738,0,0,1-42.45-4.871,9.881,9.881,0,0,0-5.2,6.813,10.087,10.087,0,0,0,1.351,7.624c13.318,2.4,27.188,4.9,46.243,4.9,19.363,0,32.925-2.5,46.243-4.9A10.093,10.093,0,0,0,298.923,236.656Z" transform="translate(-135.455 -143.951)" fill="#a1c8e0"/>
          <path id="Path_24220" data-name="Path 24220" d="M295.707,225.876c-6.028,1.351-30.976,3.423-45.1,3.423-9.757,0-38.363-2.072-44.391-3.423-3.994,1.547-3.923,7.162-2.135,10.395a321.857,321.857,0,0,0,46.578,3.793,344.958,344.958,0,0,0,48-4.03C300.448,232.8,299.7,227.423,295.707,225.876Z" transform="translate(-135.537 -144.503)" fill="#d7e5eb"/>
          <path id="Path_24221" data-name="Path 24221" d="M309.647,251.325a4.287,4.287,0,0,1-5.846.182,46.451,46.451,0,0,0-25.44-10.97,4.479,4.479,0,0,1-4.109-4.281h0c-.007-2.223,2.229-4.029,4.948-3.742a54.516,54.516,0,0,1,29.858,12.875A4.028,4.028,0,0,1,309.647,251.325Z" transform="translate(-125.616 -143.584)" fill="#c1d8e0"/>
          <path id="Path_24222" data-name="Path 24222" d="M246.589,265.349c2.041,1.195,4.236,1.19,5.907-1.212a80.1,80.1,0,0,1,27.183-24.444,5.119,5.119,0,0,0,2.41-5.817c-.3-1.291-2.464-3.382-6.593-1.253a75.363,75.363,0,0,0-30.509,27.911A3.946,3.946,0,0,0,246.589,265.349Z" transform="translate(-129.727 -143.691)" fill="#c1d8e0"/>
          <path id="Path_24223" data-name="Path 24223" d="M282.347,245.929c-.469,2.253-8.5,3.169-10.02,1.63a64.621,64.621,0,0,1-1.037-19.793c2.371-3.128,8.771-2.555,9.988-1.048C282.076,234.795,282.027,239.575,282.347,245.929Z" transform="translate(-126.078 -144.555)" fill="#fff"/>
        </g>
      </g>
      <g id="Group_25710" data-name="Group 25710" transform="translate(59.022 337.596)">
        <g id="Group_25711" data-name="Group 25711" transform="translate(351.947 106)">
          <path id="Path_24374" data-name="Path 24374" d="M365.417,308.394,365.4,323.22c0,2.281,17.159,4.151,38.33,4.173s38.337-1.806,38.339-4.088l.021-14.826Z" transform="translate(-365.396 -304.306)" fill="#db9c28"/>
          <path id="Path_24375" data-name="Path 24375" d="M365.417,308.394,365.4,323.22c0,2.281,17.159,4.151,38.33,4.173s38.337-1.806,38.339-4.088l.021-14.826Z" transform="translate(-365.396 -304.306)" fill="#db9c28"/>
          <path id="Path_24376" data-name="Path 24376" d="M365.417,308.394,365.4,323.22c0,2.281,17.159,4.151,38.33,4.173s38.337-1.806,38.339-4.088l.021-14.826Z" transform="translate(-365.396 -304.306)" fill="#e38a0a"/>
          <path id="Path_24377" data-name="Path 24377" d="M399.072,308.431l-.025,18.957c21.172.024,38.337-1.807,38.339-4.088l.021-14.826Z" transform="translate(-360.717 -304.301)" fill="#c47d17" opacity="0.5"/>
          <path id="Path_24380" data-name="Path 24380" d="M418.873,326.617c2.439-.189,4.656-.409,6.61-.654l.024-17.5-6.61-.007Z" transform="translate(-357.96 -304.297)" fill="#e38a0a"/>
          <g id="Group_25676" data-name="Group 25676" transform="translate(0.021)">
            <path id="Path_24381" data-name="Path 24381" d="M442.084,308.979c0,2.281-17.168,4.112-38.339,4.088s-38.333-1.892-38.33-4.173,17.168-4.112,38.339-4.088S442.086,306.7,442.084,308.979Z" transform="translate(-365.414 -304.805)" fill="#f5c147"/>
            <g id="Group_25672" data-name="Group 25672" transform="translate(1.983 0.661)">
              <g id="Group_25671" data-name="Group 25671">
                <g id="Group_25670" data-name="Group 25670">
                  <g id="Group_25669" data-name="Group 25669">
                    <path id="Path_24382" data-name="Path 24382" d="M403.5,312.325c-14.612-.017-36.351-.965-36.347-3.511s21.743-3.446,36.355-3.43,36.351.965,36.348,3.511S418.115,312.341,403.5,312.325Zm.008-6.28c-22.344-.025-35.289,1.629-35.7,2.782.4,1.13,13.346,2.812,35.689,2.836,22.268.025,35.2-1.616,35.691-2.768C438.707,307.742,425.777,306.071,403.51,306.046Z" transform="translate(-367.155 -305.385)" fill="#ba730d"/>
                  </g>
                </g>
              </g>
            </g>
            <g id="Group_25675" data-name="Group 25675" transform="translate(28.368 1.974)">
              <g id="Group_25674" data-name="Group 25674">
                <g id="Group_25673" data-name="Group 25673">
                  <path id="Path_24383" data-name="Path 24383" d="M403.407,306.958l4.957.006,1.892-.407-18.045-.019-1.892.406,4.912.006a51.45,51.45,0,0,1,5.146.425l-8.167-.009-1.891.405,10.853.011c-.159.285-1.15.489-3.784.639-2.55.146-7.046.106-7.046.106v.4l11.457,1.92,4.754,0-11.688-1.916s9.552-.125,10.28-1.147l3.218,0,1.892-.407-5.274-.006A4.922,4.922,0,0,0,403.407,306.958Z" transform="translate(-390.319 -306.538)" fill="#ba730d"/>
                </g>
              </g>
            </g>
          </g>
        </g>
        <g id="Group_25712" data-name="Group 25712" transform="translate(356.947 89)">
          <path id="Path_24374-2" data-name="Path 24374" d="M365.417,308.394,365.4,323.22c0,2.281,17.159,4.151,38.33,4.173s38.337-1.806,38.339-4.088l.021-14.826Z" transform="translate(-365.396 -304.306)" fill="#db9c28"/>
          <path id="Path_24375-2" data-name="Path 24375" d="M365.417,308.394,365.4,323.22c0,2.281,17.159,4.151,38.33,4.173s38.337-1.806,38.339-4.088l.021-14.826Z" transform="translate(-365.396 -304.306)" fill="#db9c28"/>
          <path id="Path_24376-2" data-name="Path 24376" d="M365.417,308.394,365.4,323.22c0,2.281,17.159,4.151,38.33,4.173s38.337-1.806,38.339-4.088l.021-14.826Z" transform="translate(-365.396 -304.306)" fill="#e38a0a"/>
          <path id="Path_24377-2" data-name="Path 24377" d="M399.072,308.431l-.025,18.957c21.172.024,38.337-1.807,38.339-4.088l.021-14.826Z" transform="translate(-360.717 -304.301)" fill="#c47d17" opacity="0.5"/>
          <path id="Path_24379" data-name="Path 24379" d="M375.413,308.7l-2.637,0-.023,17.073q1.242.167,2.636.323Z" transform="translate(-364.373 -304.264)" fill="#ebba73"/>
          <path id="Path_24380-2" data-name="Path 24380" d="M418.873,326.617c2.439-.189,4.656-.409,6.61-.654l.024-17.5-6.61-.007Z" transform="translate(-357.96 -304.297)" fill="#e38a0a"/>
          <g id="Group_25676-2" data-name="Group 25676" transform="translate(0.021)">
            <path id="Path_24381-2" data-name="Path 24381" d="M442.084,308.979c0,2.281-17.168,4.112-38.339,4.088s-38.333-1.892-38.33-4.173,17.168-4.112,38.339-4.088S442.086,306.7,442.084,308.979Z" transform="translate(-365.414 -304.805)" fill="#f5c147"/>
            <g id="Group_25672-2" data-name="Group 25672" transform="translate(1.983 0.661)">
              <g id="Group_25671-2" data-name="Group 25671">
                <g id="Group_25670-2" data-name="Group 25670">
                  <g id="Group_25669-2" data-name="Group 25669">
                    <path id="Path_24382-2" data-name="Path 24382" d="M403.5,312.325c-14.612-.017-36.351-.965-36.347-3.511s21.743-3.446,36.355-3.43,36.351.965,36.348,3.511S418.115,312.341,403.5,312.325Zm.008-6.28c-22.344-.025-35.289,1.629-35.7,2.782.4,1.13,13.346,2.812,35.689,2.836,22.268.025,35.2-1.616,35.691-2.768C438.707,307.742,425.777,306.071,403.51,306.046Z" transform="translate(-367.155 -305.385)" fill="#ba730d"/>
                  </g>
                </g>
              </g>
            </g>
            <g id="Group_25675-2" data-name="Group 25675" transform="translate(28.368 1.974)">
              <g id="Group_25674-2" data-name="Group 25674">
                <g id="Group_25673-2" data-name="Group 25673">
                  <path id="Path_24383-2" data-name="Path 24383" d="M403.407,306.958l4.957.006,1.892-.407-18.045-.019-1.892.406,4.912.006a51.45,51.45,0,0,1,5.146.425l-8.167-.009-1.891.405,10.853.011c-.159.285-1.15.489-3.784.639-2.55.146-7.046.106-7.046.106v.4l11.457,1.92,4.754,0-11.688-1.916s9.552-.125,10.28-1.147l3.218,0,1.892-.407-5.274-.006A4.922,4.922,0,0,0,403.407,306.958Z" transform="translate(-390.319 -306.538)" fill="#ba730d"/>
                </g>
              </g>
            </g>
          </g>
        </g>
        <g id="Group_25713" data-name="Group 25713" transform="translate(350.947 73)">
          <path id="Path_24374-3" data-name="Path 24374" d="M365.417,308.394,365.4,323.22c0,2.281,17.159,4.151,38.33,4.173s38.337-1.806,38.339-4.088l.021-14.826Z" transform="translate(-365.396 -304.306)" fill="#db9c28"/>
          <path id="Path_24375-3" data-name="Path 24375" d="M365.417,308.394,365.4,323.22c0,2.281,17.159,4.151,38.33,4.173s38.337-1.806,38.339-4.088l.021-14.826Z" transform="translate(-365.396 -304.306)" fill="#db9c28"/>
          <path id="Path_24376-3" data-name="Path 24376" d="M365.417,308.394,365.4,323.22c0,2.281,17.159,4.151,38.33,4.173s38.337-1.806,38.339-4.088l.021-14.826Z" transform="translate(-365.396 -304.306)" fill="#e38a0a"/>
          <path id="Path_24377-3" data-name="Path 24377" d="M399.072,308.431l-.025,18.957c21.172.024,38.337-1.807,38.339-4.088l.021-14.826Z" transform="translate(-360.717 -304.301)" fill="#c47d17" opacity="0.5"/>
          <path id="Path_24379-2" data-name="Path 24379" d="M375.413,308.7l-2.637,0-.023,17.073q1.242.167,2.636.323Z" transform="translate(-364.373 -304.264)" fill="#ebba73"/>
          <path id="Path_24380-3" data-name="Path 24380" d="M418.873,326.617c2.439-.189,4.656-.409,6.61-.654l.024-17.5-6.61-.007Z" transform="translate(-357.96 -304.297)" fill="#e38a0a"/>
          <g id="Group_25676-3" data-name="Group 25676" transform="translate(0.021)">
            <path id="Path_24381-3" data-name="Path 24381" d="M442.084,308.979c0,2.281-17.168,4.112-38.339,4.088s-38.333-1.892-38.33-4.173,17.168-4.112,38.339-4.088S442.086,306.7,442.084,308.979Z" transform="translate(-365.414 -304.805)" fill="#f5c147"/>
            <g id="Group_25672-3" data-name="Group 25672" transform="translate(1.983 0.661)">
              <g id="Group_25671-3" data-name="Group 25671">
                <g id="Group_25670-3" data-name="Group 25670">
                  <g id="Group_25669-3" data-name="Group 25669">
                    <path id="Path_24382-3" data-name="Path 24382" d="M403.5,312.325c-14.612-.017-36.351-.965-36.347-3.511s21.743-3.446,36.355-3.43,36.351.965,36.348,3.511S418.115,312.341,403.5,312.325Zm.008-6.28c-22.344-.025-35.289,1.629-35.7,2.782.4,1.13,13.346,2.812,35.689,2.836,22.268.025,35.2-1.616,35.691-2.768C438.707,307.742,425.777,306.071,403.51,306.046Z" transform="translate(-367.155 -305.385)" fill="#ba730d"/>
                  </g>
                </g>
              </g>
            </g>
            <g id="Group_25675-3" data-name="Group 25675" transform="translate(28.368 1.974)">
              <g id="Group_25674-3" data-name="Group 25674">
                <g id="Group_25673-3" data-name="Group 25673">
                  <path id="Path_24383-3" data-name="Path 24383" d="M403.407,306.958l4.957.006,1.892-.407-18.045-.019-1.892.406,4.912.006a51.45,51.45,0,0,1,5.146.425l-8.167-.009-1.891.405,10.853.011c-.159.285-1.15.489-3.784.639-2.55.146-7.046.106-7.046.106v.4l11.457,1.92,4.754,0-11.688-1.916s9.552-.125,10.28-1.147l3.218,0,1.892-.407-5.274-.006A4.922,4.922,0,0,0,403.407,306.958Z" transform="translate(-390.319 -306.538)" fill="#ba730d"/>
                </g>
              </g>
            </g>
          </g>
        </g>
        <g id="Group_25714" data-name="Group 25714" transform="translate(352.947 56)">
          <path id="Path_24374-4" data-name="Path 24374" d="M365.417,308.394,365.4,323.22c0,2.281,17.159,4.151,38.33,4.173s38.337-1.806,38.339-4.088l.021-14.826Z" transform="translate(-365.396 -304.306)" fill="#db9c28"/>
          <path id="Path_24375-4" data-name="Path 24375" d="M365.417,308.394,365.4,323.22c0,2.281,17.159,4.151,38.33,4.173s38.337-1.806,38.339-4.088l.021-14.826Z" transform="translate(-365.396 -304.306)" fill="#db9c28"/>
          <path id="Path_24376-4" data-name="Path 24376" d="M365.417,308.394,365.4,323.22c0,2.281,17.159,4.151,38.33,4.173s38.337-1.806,38.339-4.088l.021-14.826Z" transform="translate(-365.396 -304.306)" fill="#e38a0a"/>
          <path id="Path_24377-4" data-name="Path 24377" d="M399.072,308.431l-.025,18.957c21.172.024,38.337-1.807,38.339-4.088l.021-14.826Z" transform="translate(-360.717 -304.301)" fill="#c47d17" opacity="0.5"/>
          <path id="Path_24380-4" data-name="Path 24380" d="M418.873,326.617c2.439-.189,4.656-.409,6.61-.654l.024-17.5-6.61-.007Z" transform="translate(-357.96 -304.297)" fill="#e38a0a"/>
          <g id="Group_25676-4" data-name="Group 25676" transform="translate(0.021)">
            <path id="Path_24381-4" data-name="Path 24381" d="M442.084,308.979c0,2.281-17.168,4.112-38.339,4.088s-38.333-1.892-38.33-4.173,17.168-4.112,38.339-4.088S442.086,306.7,442.084,308.979Z" transform="translate(-365.414 -304.805)" fill="#f5c147"/>
            <g id="Group_25672-4" data-name="Group 25672" transform="translate(1.983 0.661)">
              <g id="Group_25671-4" data-name="Group 25671">
                <g id="Group_25670-4" data-name="Group 25670">
                  <g id="Group_25669-4" data-name="Group 25669">
                    <path id="Path_24382-4" data-name="Path 24382" d="M403.5,312.325c-14.612-.017-36.351-.965-36.347-3.511s21.743-3.446,36.355-3.43,36.351.965,36.348,3.511S418.115,312.341,403.5,312.325Zm.008-6.28c-22.344-.025-35.289,1.629-35.7,2.782.4,1.13,13.346,2.812,35.689,2.836,22.268.025,35.2-1.616,35.691-2.768C438.707,307.742,425.777,306.071,403.51,306.046Z" transform="translate(-367.155 -305.385)" fill="#ba730d"/>
                  </g>
                </g>
              </g>
            </g>
            <g id="Group_25675-4" data-name="Group 25675" transform="translate(28.368 1.974)">
              <g id="Group_25674-4" data-name="Group 25674">
                <g id="Group_25673-4" data-name="Group 25673">
                  <path id="Path_24383-4" data-name="Path 24383" d="M403.407,306.958l4.957.006,1.892-.407-18.045-.019-1.892.406,4.912.006a51.45,51.45,0,0,1,5.146.425l-8.167-.009-1.891.405,10.853.011c-.159.285-1.15.489-3.784.639-2.55.146-7.046.106-7.046.106v.4l11.457,1.92,4.754,0-11.688-1.916s9.552-.125,10.28-1.147l3.218,0,1.892-.407-5.274-.006A4.922,4.922,0,0,0,403.407,306.958Z" transform="translate(-390.319 -306.538)" fill="#ba730d"/>
                </g>
              </g>
            </g>
          </g>
        </g>
        <g id="Group_25715" data-name="Group 25715" transform="translate(354.947 39)">
          <path id="Path_24374-5" data-name="Path 24374" d="M365.417,308.394,365.4,323.22c0,2.281,17.159,4.151,38.33,4.173s38.337-1.806,38.339-4.088l.021-14.826Z" transform="translate(-365.396 -304.306)" fill="#db9c28"/>
          <path id="Path_24375-5" data-name="Path 24375" d="M365.417,308.394,365.4,323.22c0,2.281,17.159,4.151,38.33,4.173s38.337-1.806,38.339-4.088l.021-14.826Z" transform="translate(-365.396 -304.306)" fill="#db9c28"/>
          <path id="Path_24376-5" data-name="Path 24376" d="M365.417,308.394,365.4,323.22c0,2.281,17.159,4.151,38.33,4.173s38.337-1.806,38.339-4.088l.021-14.826Z" transform="translate(-365.396 -304.306)" fill="#e38a0a"/>
          <path id="Path_24377-5" data-name="Path 24377" d="M399.072,308.431l-.025,18.957c21.172.024,38.337-1.807,38.339-4.088l.021-14.826Z" transform="translate(-360.717 -304.301)" fill="#c47d17" opacity="0.482"/>
          <path id="Path_24380-5" data-name="Path 24380" d="M418.873,326.617c2.439-.189,4.656-.409,6.61-.654l.024-17.5-6.61-.007Z" transform="translate(-357.96 -304.297)" fill="#e38a0a"/>
          <g id="Group_25676-5" data-name="Group 25676" transform="translate(0.021)">
            <path id="Path_24381-5" data-name="Path 24381" d="M442.084,308.979c0,2.281-17.168,4.112-38.339,4.088s-38.333-1.892-38.33-4.173,17.168-4.112,38.339-4.088S442.086,306.7,442.084,308.979Z" transform="translate(-365.414 -304.805)" fill="#f5c147"/>
            <g id="Group_25672-5" data-name="Group 25672" transform="translate(1.983 0.661)">
              <g id="Group_25671-5" data-name="Group 25671">
                <g id="Group_25670-5" data-name="Group 25670">
                  <g id="Group_25669-5" data-name="Group 25669">
                    <path id="Path_24382-5" data-name="Path 24382" d="M403.5,312.325c-14.612-.017-36.351-.965-36.347-3.511s21.743-3.446,36.355-3.43,36.351.965,36.348,3.511S418.115,312.341,403.5,312.325Zm.008-6.28c-22.344-.025-35.289,1.629-35.7,2.782.4,1.13,13.346,2.812,35.689,2.836,22.268.025,35.2-1.616,35.691-2.768C438.707,307.742,425.777,306.071,403.51,306.046Z" transform="translate(-367.155 -305.385)" fill="#ba730d"/>
                  </g>
                </g>
              </g>
            </g>
            <g id="Group_25675-5" data-name="Group 25675" transform="translate(28.368 1.974)">
              <g id="Group_25674-5" data-name="Group 25674">
                <g id="Group_25673-5" data-name="Group 25673">
                  <path id="Path_24383-5" data-name="Path 24383" d="M403.407,306.958l4.957.006,1.892-.407-18.045-.019-1.892.406,4.912.006a51.45,51.45,0,0,1,5.146.425l-8.167-.009-1.891.405,10.853.011c-.159.285-1.15.489-3.784.639-2.55.146-7.046.106-7.046.106v.4l11.457,1.92,4.754,0-11.688-1.916s9.552-.125,10.28-1.147l3.218,0,1.892-.407-5.274-.006A4.922,4.922,0,0,0,403.407,306.958Z" transform="translate(-390.319 -306.538)" fill="#ba730d"/>
                </g>
              </g>
            </g>
          </g>
        </g>
        <g id="Group_25716" data-name="Group 25716" transform="translate(350.947 22)">
          <path id="Path_24374-6" data-name="Path 24374" d="M365.417,308.394,365.4,323.22c0,2.281,17.159,4.151,38.33,4.173s38.337-1.806,38.339-4.088l.021-14.826Z" transform="translate(-365.396 -304.306)" fill="#db9c28"/>
          <path id="Path_24375-6" data-name="Path 24375" d="M365.417,308.394,365.4,323.22c0,2.281,17.159,4.151,38.33,4.173s38.337-1.806,38.339-4.088l.021-14.826Z" transform="translate(-365.396 -304.306)" fill="#db9c28"/>
          <path id="Path_24376-6" data-name="Path 24376" d="M365.417,308.394,365.4,323.22c0,2.281,17.159,4.151,38.33,4.173s38.337-1.806,38.339-4.088l.021-14.826Z" transform="translate(-365.396 -304.306)" fill="#e38a0a"/>
          <path id="Path_24377-6" data-name="Path 24377" d="M399.072,308.431l-.025,18.957c21.172.024,38.337-1.807,38.339-4.088l.021-14.826Z" transform="translate(-360.717 -304.301)" fill="#c47d17" opacity="0.5"/>
          <path id="Path_24380-6" data-name="Path 24380" d="M418.873,326.617c2.439-.189,4.656-.409,6.61-.654l.024-17.5-6.61-.007Z" transform="translate(-357.96 -304.297)" fill="#e38a0a"/>
          <g id="Group_25676-6" data-name="Group 25676" transform="translate(0.021)">
            <path id="Path_24381-6" data-name="Path 24381" d="M442.084,308.979c0,2.281-17.168,4.112-38.339,4.088s-38.333-1.892-38.33-4.173,17.168-4.112,38.339-4.088S442.086,306.7,442.084,308.979Z" transform="translate(-365.414 -304.805)" fill="#f5c147"/>
            <g id="Group_25672-6" data-name="Group 25672" transform="translate(1.983 0.661)">
              <g id="Group_25671-6" data-name="Group 25671">
                <g id="Group_25670-6" data-name="Group 25670">
                  <g id="Group_25669-6" data-name="Group 25669">
                    <path id="Path_24382-6" data-name="Path 24382" d="M403.5,312.325c-14.612-.017-36.351-.965-36.347-3.511s21.743-3.446,36.355-3.43,36.351.965,36.348,3.511S418.115,312.341,403.5,312.325Zm.008-6.28c-22.344-.025-35.289,1.629-35.7,2.782.4,1.13,13.346,2.812,35.689,2.836,22.268.025,35.2-1.616,35.691-2.768C438.707,307.742,425.777,306.071,403.51,306.046Z" transform="translate(-367.155 -305.385)" fill="#ba730d"/>
                  </g>
                </g>
              </g>
            </g>
            <g id="Group_25675-6" data-name="Group 25675" transform="translate(28.368 1.974)">
              <g id="Group_25674-6" data-name="Group 25674">
                <g id="Group_25673-6" data-name="Group 25673">
                  <path id="Path_24383-6" data-name="Path 24383" d="M403.407,306.958l4.957.006,1.892-.407-18.045-.019-1.892.406,4.912.006a51.45,51.45,0,0,1,5.146.425l-8.167-.009-1.891.405,10.853.011c-.159.285-1.15.489-3.784.639-2.55.146-7.046.106-7.046.106v.4l11.457,1.92,4.754,0-11.688-1.916s9.552-.125,10.28-1.147l3.218,0,1.892-.407-5.274-.006A4.922,4.922,0,0,0,403.407,306.958Z" transform="translate(-390.319 -306.538)" fill="#ba730d"/>
                </g>
              </g>
            </g>
          </g>
        </g>
        <g id="Group_25717" data-name="Group 25717" transform="translate(354.947 5)">
          <path id="Path_24374-7" data-name="Path 24374" d="M365.417,308.394,365.4,323.22c0,2.281,17.159,4.151,38.33,4.173s38.337-1.806,38.339-4.088l.021-14.826Z" transform="translate(-365.396 -304.306)" fill="#db9c28"/>
          <path id="Path_24375-7" data-name="Path 24375" d="M365.417,308.394,365.4,323.22c0,2.281,17.159,4.151,38.33,4.173s38.337-1.806,38.339-4.088l.021-14.826Z" transform="translate(-365.396 -304.306)" fill="#db9c28"/>
          <path id="Path_24376-7" data-name="Path 24376" d="M365.417,308.394,365.4,323.22c0,2.281,17.159,4.151,38.33,4.173s38.337-1.806,38.339-4.088l.021-14.826Z" transform="translate(-365.396 -304.306)" fill="#e38a0a"/>
          <path id="Path_24377-7" data-name="Path 24377" d="M399.072,308.431l-.025,18.957c21.172.024,38.337-1.807,38.339-4.088l.021-14.826Z" transform="translate(-360.717 -304.301)" fill="#c47d17" opacity="0.5"/>
          <path id="Path_24380-7" data-name="Path 24380" d="M418.873,326.617c2.439-.189,4.656-.409,6.61-.654l.024-17.5-6.61-.007Z" transform="translate(-357.96 -304.297)" fill="#e38a0a"/>
          <g id="Group_25676-7" data-name="Group 25676" transform="translate(0.021)">
            <path id="Path_24381-7" data-name="Path 24381" d="M442.084,308.979c0,2.281-17.168,4.112-38.339,4.088s-38.333-1.892-38.33-4.173,17.168-4.112,38.339-4.088S442.086,306.7,442.084,308.979Z" transform="translate(-365.414 -304.805)" fill="#f5c147"/>
            <g id="Group_25672-7" data-name="Group 25672" transform="translate(1.983 0.661)">
              <g id="Group_25671-7" data-name="Group 25671">
                <g id="Group_25670-7" data-name="Group 25670">
                  <g id="Group_25669-7" data-name="Group 25669">
                    <path id="Path_24382-7" data-name="Path 24382" d="M403.5,312.325c-14.612-.017-36.351-.965-36.347-3.511s21.743-3.446,36.355-3.43,36.351.965,36.348,3.511S418.115,312.341,403.5,312.325Zm.008-6.28c-22.344-.025-35.289,1.629-35.7,2.782.4,1.13,13.346,2.812,35.689,2.836,22.268.025,35.2-1.616,35.691-2.768C438.707,307.742,425.777,306.071,403.51,306.046Z" transform="translate(-367.155 -305.385)" fill="#ba730d"/>
                  </g>
                </g>
              </g>
            </g>
            <g id="Group_25675-7" data-name="Group 25675" transform="translate(28.368 1.974)">
              <g id="Group_25674-7" data-name="Group 25674">
                <g id="Group_25673-7" data-name="Group 25673">
                  <path id="Path_24383-7" data-name="Path 24383" d="M403.407,306.958l4.957.006,1.892-.407-18.045-.019-1.892.406,4.912.006a51.45,51.45,0,0,1,5.146.425l-8.167-.009-1.891.405,10.853.011c-.159.285-1.15.489-3.784.639-2.55.146-7.046.106-7.046.106v.4l11.457,1.92,4.754,0-11.688-1.916s9.552-.125,10.28-1.147l3.218,0,1.892-.407-5.274-.006A4.922,4.922,0,0,0,403.407,306.958Z" transform="translate(-390.319 -306.538)" fill="#ba730d"/>
                </g>
              </g>
            </g>
          </g>
        </g>
        <g id="Group_25718" data-name="Group 25718" transform="translate(350.947 -12)">
          <path id="Path_24374-8" data-name="Path 24374" d="M365.417,308.394,365.4,323.22c0,2.281,17.159,4.151,38.33,4.173s38.337-1.806,38.339-4.088l.021-14.826Z" transform="translate(-365.396 -304.306)" fill="#db9c28"/>
          <path id="Path_24375-8" data-name="Path 24375" d="M365.417,308.394,365.4,323.22c0,2.281,17.159,4.151,38.33,4.173s38.337-1.806,38.339-4.088l.021-14.826Z" transform="translate(-365.396 -304.306)" fill="#db9c28"/>
          <path id="Path_24376-8" data-name="Path 24376" d="M365.417,308.394,365.4,323.22c0,2.281,17.159,4.151,38.33,4.173s38.337-1.806,38.339-4.088l.021-14.826Z" transform="translate(-365.396 -304.306)" fill="#e38a0a"/>
          <path id="Path_24377-8" data-name="Path 24377" d="M399.072,308.431l-.025,18.957c21.172.024,38.337-1.807,38.339-4.088l.021-14.826Z" transform="translate(-360.717 -304.301)" fill="#c47d17" opacity="0.5"/>
          <path id="Path_24380-8" data-name="Path 24380" d="M418.873,326.617c2.439-.189,4.656-.409,6.61-.654l.024-17.5-6.61-.007Z" transform="translate(-357.96 -304.297)" fill="#e38a0a"/>
          <g id="Group_25676-8" data-name="Group 25676" transform="translate(0.021)">
            <path id="Path_24381-8" data-name="Path 24381" d="M442.084,308.979c0,2.281-17.168,4.112-38.339,4.088s-38.333-1.892-38.33-4.173,17.168-4.112,38.339-4.088S442.086,306.7,442.084,308.979Z" transform="translate(-365.414 -304.805)" fill="#f5c147"/>
            <g id="Group_25672-8" data-name="Group 25672" transform="translate(1.983 0.661)">
              <g id="Group_25671-8" data-name="Group 25671">
                <g id="Group_25670-8" data-name="Group 25670">
                  <g id="Group_25669-8" data-name="Group 25669">
                    <path id="Path_24382-8" data-name="Path 24382" d="M403.5,312.325c-14.612-.017-36.351-.965-36.347-3.511s21.743-3.446,36.355-3.43,36.351.965,36.348,3.511S418.115,312.341,403.5,312.325Zm.008-6.28c-22.344-.025-35.289,1.629-35.7,2.782.4,1.13,13.346,2.812,35.689,2.836,22.268.025,35.2-1.616,35.691-2.768C438.707,307.742,425.777,306.071,403.51,306.046Z" transform="translate(-367.155 -305.385)" fill="#ba730d"/>
                  </g>
                </g>
              </g>
            </g>
            <g id="Group_25675-8" data-name="Group 25675" transform="translate(28.368 1.974)">
              <g id="Group_25674-8" data-name="Group 25674">
                <g id="Group_25673-8" data-name="Group 25673">
                  <path id="Path_24383-8" data-name="Path 24383" d="M403.407,306.958l4.957.006,1.892-.407-18.045-.019-1.892.406,4.912.006a51.45,51.45,0,0,1,5.146.425l-8.167-.009-1.891.405,10.853.011c-.159.285-1.15.489-3.784.639-2.55.146-7.046.106-7.046.106v.4l11.457,1.92,4.754,0-11.688-1.916s9.552-.125,10.28-1.147l3.218,0,1.892-.407-5.274-.006A4.922,4.922,0,0,0,403.407,306.958Z" transform="translate(-390.319 -306.538)" fill="#ba730d"/>
                </g>
              </g>
            </g>
          </g>
        </g>
        <g id="Group_25687" data-name="Group 25687" transform="translate(235.108 48.624)">
          <path id="Path_24384" data-name="Path 24384" d="M272.248,410.1l9.868,9.9c5.393,5.4,21.946-2.32,36.972-17.234s22.837-31.38,17.443-36.777l-9.868-9.9Z" transform="translate(-262.509 -346.297)" fill="#db9c28"/>
          <path id="Path_24385" data-name="Path 24385" d="M272.248,410.1l9.868,9.9c5.393,5.4,21.946-2.32,36.972-17.234s22.837-31.38,17.443-36.777l-9.868-9.9Z" transform="translate(-262.509 -346.297)" fill="#db9c28"/>
          <path id="Path_24386" data-name="Path 24386" d="M272.248,410.1l9.868,9.9c5.393,5.4,21.946-2.32,36.972-17.234s22.837-31.38,17.443-36.777l-9.868-9.9Z" transform="translate(-262.509 -346.297)" fill="#faa61a"/>
          <path id="Path_24387" data-name="Path 24387" d="M296.135,383.1l19.632,19.668c15.026-14.915,22.837-31.38,17.443-36.777l-9.868-9.9Z" transform="translate(-259.187 -346.297)" fill="#d38210"/>
          <path id="Path_24388" data-name="Path 24388" d="M298.283,413.511a76.306,76.306,0,0,0,11.459-7.7l-19.229-19.264L280.9,396.09Z" transform="translate(-261.306 -342.063)" fill="#ffbb5b"/>
          <path id="Path_24389" data-name="Path 24389" d="M280.029,397.381l-1.871,1.857,15.177,15.209q1.278-.478,2.629-1.1Z" transform="translate(-261.687 -340.556)" fill="#ffbb5b"/>
          <path id="Path_24390" data-name="Path 24390" d="M327.962,384.192a48.9,48.9,0,0,0,3.128-6.219L314.9,361.747l-4.691,4.655Z" transform="translate(-257.231 -345.511)" fill="#faa61a"/>
          <g id="Group_25686" data-name="Group 25686" transform="translate(0 0)">
            <ellipse id="Ellipse_13120" data-name="Ellipse 13120" cx="38.335" cy="13.813" rx="38.335" ry="13.813" transform="matrix(0.71, -0.704, 0.704, 0.71, 0, 53.983)" fill="#fdae3c"/>
            <g id="Group_25679" data-name="Group 25679" transform="translate(21.748 8.207)">
              <g id="Group_25678" data-name="Group 25678" opacity="0.5">
                <path id="Path_24391" data-name="Path 24391" d="M317.649,354.7c-3.882.517-8.79,2.575-14.1,5.881l-15.218,46.94a86.227,86.227,0,0,0,16.083-11.993Z" transform="translate(-282.021 -354.698)" fill="#f5e08c"/>
                <path id="Path_24392" data-name="Path 24392" d="M282.791,409.542c1.124-.42,2.3-.925,3.5-1.51l15.063-46.464q-1.956,1.352-3.955,2.906Z" transform="translate(-282.791 -353.743)" fill="#f5e08c"/>
              </g>
            </g>
            <g id="Group_25682" data-name="Group 25682" transform="translate(25.76 24.697)">
              <g id="Group_25681" data-name="Group 25681">
                <g id="Group_25680" data-name="Group 25680">
                  <path id="Path_24393" data-name="Path 24393" d="M295.6,374.965l3.517-3.492.378-2.3-12.806,12.712-.378,2.3,3.486-3.459a16.923,16.923,0,0,1,4.643-2.635l-5.8,5.752-.378,2.3,7.7-7.646c.559.785.341,1.969-1.165,4.187a42.819,42.819,0,0,1-4.73,5.233l.937.939,12.642-3.561,3.374-3.349-12.8,3.732s6.461-7.048,4.56-9.978l2.284-2.268.378-2.3-3.743,3.716A3.351,3.351,0,0,0,295.6,374.965Z" transform="translate(-286.313 -369.175)" fill="#ad7610"/>
                </g>
              </g>
            </g>
            <g id="Group_25684" data-name="Group 25684" transform="translate(29.521 26.653)">
              <g id="Group_25683" data-name="Group 25683">
                <path id="Path_24394" data-name="Path 24394" d="M297.663,375.457l2.284-2.268.378-2.3-2.5,2.485-3.4,10.487C296.2,381.615,299,377.52,297.663,375.457Z" transform="translate(-288.947 -370.892)" fill="#e69d12"/>
                <path id="Path_24395" data-name="Path 24395" d="M306.051,380.383l-11.9,3.472-.813,2.509,9.343-2.632Z" transform="translate(-289.098 -369.572)" fill="#e69d12"/>
                <path id="Path_24396" data-name="Path 24396" d="M289.615,385.983l.937.939.734-.206,1.185-3.655C291.07,384.61,289.615,385.983,289.615,385.983Z" transform="translate(-289.615 -369.2)" fill="#e69d12"/>
                <path id="Path_24397" data-name="Path 24397" d="M295.766,374.543a5.068,5.068,0,0,0-.632.164l.853-.847.919-2.834-4.443,4.409-1.194,3.683a10.23,10.23,0,0,1,2.7-1.285L290.6,381.18l-.919,2.833,4.442-4.409Z" transform="translate(-289.606 -370.873)" fill="#e69d12"/>
              </g>
            </g>
            <g id="Group_25685" data-name="Group 25685" transform="translate(9.365 9.407)">
              <path id="Path_24398" data-name="Path 24398" d="M276.945,409.964a5.177,5.177,0,0,1-3.792-1.246,5.111,5.111,0,0,1-1.234-3.757c.015-7.194,7.693-19.829,18.672-30.724s23.668-18.486,30.892-18.486A5.177,5.177,0,0,1,325.277,357a5.107,5.107,0,0,1,1.234,3.755c-.015,7.193-7.693,19.827-18.672,30.725S284.168,409.964,276.945,409.964Zm44.539-53.132c-6.962,0-19.352,7.472-30.131,18.171s-18.339,23.03-18.354,29.96a4.1,4.1,0,0,0,.917,2.99,4.178,4.178,0,0,0,3.029.931c6.961,0,19.351-7.472,30.131-18.171s18.339-23.033,18.354-29.962a4.1,4.1,0,0,0-.917-2.99A4.183,4.183,0,0,0,321.485,356.832Z" transform="translate(-271.92 -355.752)" fill="#ad7610"/>
            </g>
          </g>
        </g>
        <g id="Group_25698" data-name="Group 25698" transform="translate(55.477 42.016)">
          <path id="Path_24399" data-name="Path 24399" d="M200.164,396.021c-2.5,28.053-28.944,37.091-47.28,34.175-20.857-3.318-30.775-19.935-28.9-40.971s14.59-36.029,35.694-35.208C180.6,354.832,202.578,368.957,200.164,396.021Z" transform="translate(-103.525 -339.982)" fill="#faa61a"/>
          <path id="Path_24422" data-name="Path 24422" d="M38.24,0A38.24,38.24,0,1,1,0,38.24,38.24,38.24,0,0,1,38.24,0Z" transform="matrix(0.872, -0.489, 0.489, 0.872, 0, 37.43)" fill="#f5c147"/>
          <g id="Group_25688" data-name="Group 25688" transform="translate(13.871 13.829)">
            <path id="Path_24400" data-name="Path 24400" d="M173.448,357.65l-50.59,53.439a38.425,38.425,0,0,0,10.814,11.689L185.7,367.821A38.316,38.316,0,0,0,173.448,357.65Z" transform="translate(-117.522 -353.301)" fill="#f5e08c" opacity="0.822"/>
            <path id="Path_24401" data-name="Path 24401" d="M188.514,374.842,142,425.758a38.377,38.377,0,0,0,7.658,1.475c.531.048,1.059.076,1.588.1L190.927,383.9A37.921,37.921,0,0,0,188.514,374.842Z" transform="translate(-114.86 -350.91)" fill="#f5e08c" opacity="0.822"/>
            <path id="Path_24402" data-name="Path 24402" d="M119.576,402.5l43.962-48c-1.237-.235-2.5-.413-3.776-.527a38.457,38.457,0,0,0-4.956-.112l-36.633,40A38.005,38.005,0,0,0,119.576,402.5Z" transform="translate(-118.173 -353.832)" fill="#f5e08c" opacity="0.822"/>
          </g>
          <g id="Group_25692" data-name="Group 25692" transform="translate(17.107 17.107)">
            <g id="Group_25691" data-name="Group 25691">
              <g id="Group_25690" data-name="Group 25690">
                <g id="Group_25689" data-name="Group 25689">
                  <path id="Path_24403" data-name="Path 24403" d="M152.864,426.48a34.953,34.953,0,1,1,37.921-31.709A34.993,34.993,0,0,1,152.864,426.48Zm6.105-68.44A33.758,33.758,0,1,0,189.6,394.665,33.8,33.8,0,0,0,158.969,358.04Z" transform="translate(-121.014 -356.71)" fill="#ad7610"/>
                </g>
              </g>
            </g>
          </g>
          <path id="Path_24404" data-name="Path 24404" d="M160.328,373.912l7.945-.036,3.46-4.284-28.922.134-3.46,4.284,7.872-.036s5.5,1.253,7.808,4.347l-13.089.06-3.46,4.284,17.4-.081c-.554,2.978-2.358,5.133-6.74,6.76-4.243,1.575-11.413,1.244-11.413,1.244l-.417,4.155,16.362,19.879,7.619-.035-16.736-19.839s15.452-1.485,17.692-12.194l5.159-.024,3.46-4.284-8.454.04A8.056,8.056,0,0,0,160.328,373.912Z" transform="translate(-101.642 -337.812)" fill="#ad7610"/>
          <g id="Group_25697" data-name="Group 25697" transform="translate(35.666 31.78)">
            <g id="Group_25696" data-name="Group 25696">
              <g id="Group_25693" data-name="Group 25693">
                <path id="Path_24405" data-name="Path 24405" d="M144.553,394.748s15.452-1.485,17.692-12.194l5.159-.024,3.46-4.284-8.454.04a8.056,8.056,0,0,0-2.082-4.374l7.945-.036,3.46-4.284-13.231.061-6.083,6.425a9.086,9.086,0,0,1,2.612,2.242l-4.754.022-4.058,4.287,9.659-.046c-.554,2.978-2.358,5.133-6.74,6.76-3.316,1.231-8.405,1.3-10.477,1.268l-1.049,1.109-.3,3.022,8.987,10.918,3.947-4.17Z" transform="translate(-137.308 -369.592)" fill="#e69d12"/>
              </g>
              <g id="Group_25694" data-name="Group 25694" transform="translate(16.277 40.574)">
                <path id="Path_24406" data-name="Path 24406" d="M159.3,409.634l-3.729-4.421-3.976,4.352.086.1Z" transform="translate(-151.598 -405.213)" fill="#e69d12"/>
              </g>
              <g id="Group_25695" data-name="Group 25695" transform="translate(2.043 0.124)">
                <path id="Path_24407" data-name="Path 24407" d="M142.562,369.711l-3.46,4.284,1.661-.008,3.925-4.286Z" transform="translate(-139.102 -369.701)" fill="#e69d12"/>
              </g>
            </g>
          </g>
        </g>
        <g id="Group_25709" data-name="Group 25709" transform="translate(279.378 40.231)">
          <path id="Path_24408" data-name="Path 24408" d="M398.3,396.021c-2.5,28.053-28.943,37.091-47.28,34.175-20.857-3.318-30.775-19.935-28.9-40.971s14.591-36.029,35.695-35.208C378.738,354.832,400.713,368.957,398.3,396.021Z" transform="translate(-299.876 -338.197)" fill="#c47d17"/>
          <circle id="Ellipse_13122" data-name="Ellipse 13122" cx="38.24" cy="38.24" r="38.24" transform="matrix(0.77, -0.639, 0.639, 0.77, 0, 48.838)" fill="#faa61a"/>
          <g id="Group_25699" data-name="Group 25699" transform="translate(15.655 15.614)" opacity="0.582">
            <path id="Path_24409" data-name="Path 24409" d="M371.583,357.65l-50.589,53.439a38.407,38.407,0,0,0,10.813,11.689l52.027-54.957A38.316,38.316,0,0,0,371.583,357.65Z" transform="translate(-315.656 -353.301)" fill="#ffd79d"/>
            <path id="Path_24410" data-name="Path 24410" d="M386.649,374.842l-46.517,50.916a38.377,38.377,0,0,0,7.658,1.475c.531.048,1.059.076,1.588.1L389.062,383.9A37.918,37.918,0,0,0,386.649,374.842Z" transform="translate(-312.995 -350.91)" fill="#ffd79d"/>
            <path id="Path_24411" data-name="Path 24411" d="M317.711,402.5l43.962-48c-1.236-.235-2.495-.413-3.775-.527a38.475,38.475,0,0,0-4.957-.112l-36.633,40A38.006,38.006,0,0,0,317.711,402.5Z" transform="translate(-316.308 -353.832)" fill="#ffd79d"/>
          </g>
          <g id="Group_25703" data-name="Group 25703" transform="translate(18.893 18.892)">
            <g id="Group_25702" data-name="Group 25702">
              <g id="Group_25701" data-name="Group 25701">
                <g id="Group_25700" data-name="Group 25700">
                  <path id="Path_24412" data-name="Path 24412" d="M351,426.48a34.953,34.953,0,1,1,37.921-31.709A34.991,34.991,0,0,1,351,426.48Zm6.105-68.44a33.758,33.758,0,1,0,30.626,36.625A33.8,33.8,0,0,0,357.1,358.04Z" transform="translate(-319.15 -356.71)" fill="rgba(162,116,30,0.74)"/>
                </g>
              </g>
            </g>
          </g>
          <path id="Path_24413" data-name="Path 24413" d="M358.463,373.912l7.945-.036,3.46-4.284-28.922.134-3.46,4.284,7.872-.036s5.5,1.253,7.808,4.347l-13.089.06-3.46,4.284,17.4-.081c-.555,2.978-2.359,5.133-6.741,6.76-4.243,1.575-11.412,1.244-11.412,1.244l-.418,4.155,16.362,19.879,7.619-.035L342.69,394.748s15.451-1.485,17.691-12.194l5.159-.024,3.46-4.284-8.454.04A8.055,8.055,0,0,0,358.463,373.912Z" transform="translate(-297.992 -336.027)" fill="#ad7610"/>
          <g id="Group_25708" data-name="Group 25708" transform="translate(37.451 33.565)">
            <g id="Group_25707" data-name="Group 25707">
              <g id="Group_25704" data-name="Group 25704">
                <path id="Path_24414" data-name="Path 24414" d="M342.69,394.748s15.451-1.485,17.691-12.194l5.159-.024,3.46-4.284-8.454.04a8.055,8.055,0,0,0-2.082-4.374l7.945-.036,3.46-4.284-13.23.061-6.084,6.425a9.087,9.087,0,0,1,2.612,2.242l-4.754.022-4.058,4.287,9.66-.046c-.555,2.978-2.359,5.133-6.741,6.76-3.316,1.231-8.405,1.3-10.477,1.268l-1.049,1.109-.3,3.022,8.987,10.918,3.948-4.17Z" transform="translate(-335.443 -369.592)" fill="#d88c20"/>
              </g>
              <g id="Group_25705" data-name="Group 25705" transform="translate(16.277 40.574)">
                <path id="Path_24415" data-name="Path 24415" d="M357.438,409.634l-3.729-4.421-3.976,4.352.086.1Z" transform="translate(-349.733 -405.213)" fill="#d88c20"/>
              </g>
              <g id="Group_25706" data-name="Group 25706" transform="translate(2.044 0.124)">
                <path id="Path_24416" data-name="Path 24416" d="M340.7,369.711l-3.46,4.284,1.661-.008,3.925-4.286Z" transform="translate(-337.237 -369.701)" fill="#d88c20"/>
              </g>
            </g>
          </g>
        </g>
      </g>
      <path id="Path_24417" data-name="Path 24417" d="M381.833,298.711l-10.382,10.381a3.507,3.507,0,0,1-4.961,0l-2.311-2.311a1.39,1.39,0,0,0-1.943-.056,1.354,1.354,0,0,0,.028,1.947L364.588,311a3.505,3.505,0,0,1,0,4.959l-10.2,10.2a1.389,1.389,0,0,0-.056,1.942,1.354,1.354,0,0,0,1.947-.029l10.212-10.213a3.509,3.509,0,0,1,4.961,0l2.168,2.168a1.389,1.389,0,0,0,1.942.056,1.354,1.354,0,0,0-.029-1.947l-2.179-2.179a3.507,3.507,0,0,1,0-4.959L383.747,300.6a1.354,1.354,0,0,0,.028-1.947A1.389,1.389,0,0,0,381.833,298.711Z" transform="translate(43.984 29.885)" fill="#fff"/>
      <path id="Path_24418" data-name="Path 24418" d="M99.52,298.641,89.138,309.023a3.508,3.508,0,0,1-4.959,0l-2.312-2.312a1.39,1.39,0,0,0-1.942-.056,1.353,1.353,0,0,0,.028,1.947l2.323,2.324a3.505,3.505,0,0,1,0,4.959l-10.2,10.2a1.389,1.389,0,0,0-.056,1.942A1.354,1.354,0,0,0,73.966,328l10.213-10.212a3.506,3.506,0,0,1,4.959,0l2.168,2.168a1.391,1.391,0,0,0,1.942.056,1.354,1.354,0,0,0-.027-1.947l-2.18-2.18a3.508,3.508,0,0,1,0-4.959l10.394-10.394a1.354,1.354,0,0,0,.028-1.947A1.391,1.391,0,0,0,99.52,298.641Z" transform="translate(111.728 91.875)" fill="#fff"/>
      <path id="Path_24419" data-name="Path 24419" d="M406,364.976l-10.382,10.382a3.508,3.508,0,0,1-4.959,0l-2.312-2.312a1.389,1.389,0,0,0-1.942-.056,1.352,1.352,0,0,0,.028,1.947l2.323,2.324a3.505,3.505,0,0,1,0,4.959l-10.2,10.2a1.389,1.389,0,0,0-.056,1.942,1.354,1.354,0,0,0,1.947-.028l10.213-10.212a3.505,3.505,0,0,1,4.959,0l2.168,2.168a1.39,1.39,0,0,0,1.942.055,1.353,1.353,0,0,0-.028-1.947l-2.179-2.179a3.507,3.507,0,0,1,0-4.959l10.394-10.394a1.354,1.354,0,0,0,.029-1.947A1.39,1.39,0,0,0,406,364.976Z" transform="translate(32.344 32.099)" fill="#fff"/>
      <path id="Path_24421" data-name="Path 24421" d="M302.5,415.679,292.117,405.3a3.508,3.508,0,0,1,0-4.959l2.312-2.312a1.391,1.391,0,0,0,.056-1.942,1.354,1.354,0,0,0-1.947.028l-2.324,2.324a3.509,3.509,0,0,1-4.961,0l-10.2-10.2a1.391,1.391,0,0,0-1.942-.056,1.353,1.353,0,0,0,.029,1.947l10.212,10.213a3.505,3.505,0,0,1,0,4.959l-2.168,2.168a1.391,1.391,0,0,0-.056,1.943,1.354,1.354,0,0,0,1.947-.029l2.179-2.179a3.507,3.507,0,0,1,4.961,0l10.393,10.393a1.355,1.355,0,0,0,1.948.028A1.391,1.391,0,0,0,302.5,415.679Z" transform="translate(722.419 159.43) rotate(90)" fill="#fff"/>
    </g>
  </g>
</svg>
